<svg width="257" height="243" viewBox="0 0 257 243" fill="none" xmlns="http://www.w3.org/2000/svg">
<path d="M204.064 77.1267C204.061 77.1214 204.057 77.1158 204.053 77.1104C203.325 76.0225 203.615 74.5502 204.701 73.8215C208.205 71.4682 211.969 72.2704 215.29 72.9777C217.967 73.5482 220.278 74.0407 221.987 72.8745C223.776 71.6533 224.151 69.1719 224.586 66.299C225.102 62.895 225.686 59.0369 229.088 56.7713C232.51 54.4915 236.262 55.4704 239.573 56.3337C242.631 57.1315 244.593 57.5445 246.05 56.5562C247.488 55.5808 247.826 53.6333 248.211 50.5419C248.257 50.1745 248.303 49.8062 248.352 49.4397C248.527 48.1425 249.719 47.2329 251.014 47.408C252.309 47.5832 253.216 48.7782 253.041 50.0747C252.994 50.4254 252.95 50.7776 252.907 51.1293C252.492 54.4581 252.021 58.2309 248.703 60.4822C245.368 62.7444 241.656 61.7762 238.381 60.922C235.261 60.1083 233.255 59.6886 231.708 60.7192C230.05 61.8233 229.687 64.2272 229.265 67.0103C228.739 70.4777 228.145 74.4077 224.651 76.7927C221.271 79.0996 217.571 78.3109 214.305 77.6155C211.554 77.0292 209.178 76.5228 207.335 77.7602C206.256 78.4852 204.796 78.2007 204.064 77.1267Z" fill="#56FFBA"/>
<path d="M40.9126 37.2029C40.916 37.199 40.9195 37.195 40.9229 37.1911C41.604 36.4207 42.779 36.3494 43.5476 37.0319C46.0293 39.2344 46.1678 42.2612 46.2903 44.9314C46.3888 47.0842 46.474 48.9432 47.6983 50.0133C48.9803 51.1337 50.9381 50.9273 53.2049 50.6882C55.8906 50.405 58.9347 50.0841 61.3296 52.2261C63.7392 54.3806 63.7414 57.434 63.7435 60.1276C63.7451 62.6156 63.8213 64.1927 64.8606 65.1062C65.8864 66.0082 67.4315 65.8789 69.8542 65.5587C70.1421 65.5206 70.4307 65.4825 70.7187 65.4475C71.738 65.3233 72.665 66.0508 72.7891 67.0719C72.9133 68.0933 72.1866 69.0221 71.1679 69.1463C70.8924 69.1798 70.6164 69.2164 70.3408 69.253C67.732 69.5979 64.7752 69.9884 62.4078 67.9071C60.0287 65.8154 60.0266 62.7953 60.0247 60.1306C60.0228 57.5921 59.943 55.9805 58.8536 55.0059C57.6865 53.9626 55.7899 54.1627 53.5939 54.3939C50.8581 54.6821 47.7574 55.0093 45.2536 52.821C42.8318 50.7043 42.6955 47.7281 42.575 45.1022C42.4737 42.8897 42.3862 40.9787 41.0814 39.8208C40.3168 39.1421 40.2428 37.9732 40.9126 37.2029Z" fill="#1EFFA3"/>
<path d="M13.0401 125.297C13.0388 125.292 13.0375 125.287 13.0362 125.282C12.7842 124.284 13.3868 123.271 14.3825 123.019C17.5964 122.203 20.1712 123.793 22.4428 125.195C24.274 126.325 25.8555 127.301 27.4273 126.89C29.0733 126.459 30.0052 124.721 31.0841 122.71C32.3625 120.326 33.8115 117.625 36.9266 116.848C40.0604 116.065 42.5803 117.782 44.8034 119.297C46.8567 120.696 48.2005 121.521 49.5391 121.175C50.8607 120.833 51.6239 119.481 52.7237 117.294C52.8543 117.034 52.9853 116.774 53.1186 116.516C53.5899 115.602 54.7119 115.244 55.6241 115.716C56.5365 116.188 56.8936 117.313 56.4225 118.226C56.2951 118.473 56.1698 118.722 56.0449 118.971C54.8607 121.326 53.5183 123.994 50.4687 124.783C47.404 125.575 44.9115 123.877 42.7124 122.378C40.6173 120.951 39.2429 120.109 37.8257 120.463C36.3081 120.842 35.4054 122.525 34.3599 124.474C33.0575 126.901 31.5818 129.653 28.3671 130.495C25.2577 131.308 22.726 129.746 20.492 128.367C18.61 127.206 16.9844 126.202 15.2946 126.631C14.3043 126.882 13.2985 126.285 13.0401 125.297Z" fill="#56FFBA"/>
<path d="M180.632 146.606C180.634 146.601 180.637 146.596 180.639 146.591C181.143 145.617 182.338 145.237 183.309 145.742C186.445 147.37 187.374 150.461 188.195 153.187C188.856 155.385 189.427 157.283 190.969 158.069C192.585 158.892 194.553 158.169 196.833 157.331C199.534 156.338 202.595 155.212 205.625 156.801C208.674 158.398 209.469 161.551 210.171 164.333C210.819 166.903 211.307 168.512 212.618 169.185C213.912 169.849 215.475 169.313 217.894 168.35C218.182 168.236 218.47 168.121 218.758 168.01C219.779 167.616 220.926 168.126 221.319 169.148C221.713 170.171 221.203 171.32 220.183 171.714C219.907 171.82 219.632 171.93 219.356 172.039C216.751 173.076 213.798 174.25 210.812 172.718C207.811 171.178 207.024 168.058 206.33 165.306C205.669 162.684 205.168 161.04 203.789 160.318C202.313 159.544 200.406 160.246 198.197 161.057C195.446 162.068 192.328 163.215 189.173 161.607C186.122 160.052 185.208 157.013 184.401 154.332C183.722 152.073 183.135 150.122 181.486 149.266C180.52 148.764 180.14 147.576 180.632 146.606Z" fill="#F9DE8F"/>
<path d="M184.799 72.6862C188.802 72.6862 192.047 69.4347 192.047 65.4237C192.047 61.4127 188.802 58.1611 184.799 58.1611C180.796 58.1611 177.55 61.4127 177.55 65.4237C177.55 69.4347 180.796 72.6862 184.799 72.6862Z" fill="#56FFBA"/>
<path d="M113.531 40.113C117.534 40.113 120.779 36.8614 120.779 32.8504C120.779 28.8394 117.534 25.5879 113.531 25.5879C109.528 25.5879 106.282 28.8394 106.282 32.8504C106.282 36.8614 109.528 40.113 113.531 40.113Z" fill="#8FFFD1"/>
<path d="M27.7637 151.372C30.6659 151.372 33.0186 149.015 33.0186 146.107C33.0186 143.199 30.6659 140.842 27.7637 140.842C24.8615 140.842 22.5088 143.199 22.5088 146.107C22.5088 149.015 24.8615 151.372 27.7637 151.372Z" fill="#8FFFD1"/>
<path d="M229.065 11.0633C231.968 11.0633 234.32 8.70605 234.32 5.79825C234.32 2.89044 231.968 0.533203 229.065 0.533203C226.163 0.533203 223.811 2.89044 223.811 5.79825C223.811 8.70605 226.163 11.0633 229.065 11.0633Z" fill="#8FFFD1"/>
<path d="M206.051 144.092C210.055 144.092 213.3 140.841 213.3 136.83C213.3 132.819 210.055 129.567 206.051 129.567C202.048 129.567 198.803 132.819 198.803 136.83C198.803 140.841 202.048 144.092 206.051 144.092Z" fill="#8FFFD1"/>
<path d="M44.758 92.7285C50.1424 92.7285 54.5073 88.3552 54.5073 82.9605C54.5073 77.5657 50.1424 73.1924 44.758 73.1924C39.3737 73.1924 35.0088 77.5657 35.0088 82.9605C35.0088 88.3552 39.3737 92.7285 44.758 92.7285Z" fill="#56FFBA"/>
<path d="M197.388 87.2486L200.68 93.9319C200.752 94.0781 200.891 94.1794 201.052 94.2027L208.413 95.2742C208.819 95.3333 208.98 95.8322 208.687 96.1188L203.361 101.321C203.244 101.435 203.191 101.599 203.218 101.759L204.476 109.105C204.545 109.51 204.121 109.818 203.759 109.627L197.175 106.159C197.031 106.084 196.859 106.084 196.715 106.159L190.131 109.627C189.768 109.818 189.345 109.51 189.414 109.105L190.671 101.759C190.699 101.599 190.646 101.435 190.529 101.321L185.203 96.1188C184.909 95.8326 185.071 95.3333 185.477 95.2742L192.838 94.2027C192.999 94.1794 193.138 94.0778 193.21 93.9319L196.502 87.2486C196.682 86.8807 197.206 86.8807 197.388 87.2486Z" fill="#1EFFA3"/>
<path d="M82.3721 28.3986L86.0029 35.769C86.0824 35.9302 86.2358 36.0419 86.4131 36.0676L94.5314 37.2493C94.9784 37.3144 95.1568 37.8647 94.8335 38.1807L88.9592 43.9179C88.8306 44.0433 88.7723 44.2239 88.8024 44.4011L90.1891 52.5023C90.2653 52.9483 89.7982 53.2886 89.3984 53.0779L82.1373 49.2533C81.9786 49.1699 81.7888 49.1699 81.6305 49.2533L74.3694 53.0779C73.9696 53.2882 73.5021 52.9487 73.5787 52.5023L74.9654 44.4011C74.9959 44.2239 74.9372 44.043 74.8086 43.9179L68.9343 38.1807C68.6106 37.865 68.7894 37.3144 69.2364 37.2493L77.3547 36.0676C77.5323 36.0419 77.6858 35.9298 77.7649 35.769L81.3956 28.3986C81.5941 27.9928 82.1719 27.9928 82.3721 28.3986Z" fill="#1EFFA3"/>
<path d="M211.049 28.3122L213.649 33.5901C213.706 33.7055 213.816 33.7855 213.942 33.8039L219.756 34.6501C220.076 34.6968 220.204 35.0908 219.972 35.3172L215.766 39.4255C215.674 39.5153 215.632 39.6446 215.653 39.7716L216.646 45.5728C216.701 45.8922 216.367 46.1359 216.08 45.985L210.881 43.2462C210.767 43.1865 210.631 43.1865 210.518 43.2462L205.318 45.985C205.032 46.1356 204.697 45.8925 204.752 45.5728L205.745 39.7716C205.767 39.6446 205.725 39.5151 205.633 39.4255L201.426 35.3172C201.194 35.0911 201.322 34.6968 201.642 34.6501L207.456 33.8039C207.583 33.7855 207.693 33.7053 207.75 33.5901L210.349 28.3122C210.492 28.0216 210.905 28.0216 211.049 28.3122Z" fill="#1EFFA3"/>
<path d="M9.74115 33.322L12.3411 38.5999C12.398 38.7153 12.5079 38.7953 12.6349 38.8137L18.4484 39.6599C18.7685 39.7065 18.8962 40.1006 18.6647 40.3269L14.4581 44.4353C14.366 44.5251 14.3243 44.6544 14.3458 44.7813L15.3389 50.5826C15.3934 50.902 15.0589 51.1456 14.7726 50.9947L9.57299 48.2559C9.45937 48.1962 9.32339 48.1962 9.21004 48.2559L4.01041 50.9947C3.7241 51.1454 3.38935 50.9022 3.44417 50.5826L4.43721 44.7813C4.45903 44.6544 4.41699 44.5248 4.32492 44.4353L0.118331 40.3269C-0.113432 40.1008 0.0145537 39.7065 0.334658 39.6599L6.14816 38.8137C6.27535 38.7953 6.38525 38.715 6.44193 38.5999L9.04188 33.322C9.18397 33.0314 9.59773 33.0314 9.74115 33.322Z" fill="#8FFFD1"/>
<path d="M64.7538 146.071L67.3538 151.349C67.4107 151.465 67.5206 151.545 67.6476 151.563L73.4611 152.409C73.7812 152.456 73.9089 152.85 73.6774 153.076L69.4708 157.185C69.3787 157.275 69.337 157.404 69.3585 157.531L70.3515 163.332C70.4061 163.651 70.0716 163.895 69.7853 163.744L64.5857 161.005C64.4721 160.946 64.3361 160.946 64.2227 161.005L59.0231 163.744C58.7368 163.895 58.402 163.652 58.4569 163.332L59.4499 157.531C59.4717 157.404 59.4297 157.274 59.3376 157.185L55.131 153.076C54.8993 152.85 55.0272 152.456 55.3474 152.409L61.1609 151.563C61.288 151.545 61.3979 151.465 61.4546 151.349L64.0546 146.071C64.1967 145.781 64.6104 145.781 64.7538 146.071Z" fill="#8FFFD1"/>
<path d="M20.369 218.765C20.369 220.757 19.745 222.293 18.473 223.349C17.225 224.381 15.569 224.909 13.505 224.909H10.553V231.533H6.66496V212.741H13.649C15.617 212.741 17.225 213.269 18.473 214.325C19.745 215.357 20.369 216.845 20.369 218.765ZM16.457 218.861C16.457 217.157 15.113 216.413 13.313 216.413H10.553V221.285H13.337C15.065 221.285 16.457 220.493 16.457 218.861ZM26.0746 231.773C24.8746 231.773 23.8426 231.437 23.0026 230.741C22.1626 230.045 21.7546 229.109 21.7546 227.957V227.909C21.7546 226.397 22.4986 225.293 23.6506 224.741C24.8266 224.189 26.0266 223.973 27.4666 223.973H28.7386C29.4106 223.973 29.7466 223.661 29.7466 223.037C29.7466 222.149 29.0266 221.453 27.6826 221.453C26.4106 221.453 25.4746 222.029 24.8266 223.181L21.9706 221.477C23.0746 219.437 25.0426 218.429 27.8506 218.429C31.2346 218.429 33.4186 220.229 33.4186 223.589V231.533H29.9626V229.949L29.9146 229.925C29.0506 231.149 27.7786 231.773 26.0746 231.773ZM27.1546 229.037C28.7626 229.037 29.7226 227.981 29.7226 226.565V226.277H27.4666C26.3866 226.277 25.5226 226.781 25.5226 227.741C25.5226 228.605 26.1946 229.037 27.1546 229.037ZM40.2164 230.165L34.8164 218.717H38.9444L42.1364 226.037L44.9924 218.717H48.8564L41.0804 237.845H37.0724L40.2164 230.165ZM65.0403 221.933C63.5763 221.933 62.7363 222.869 62.7363 224.381V231.533H59.0163V224.429C59.0163 222.773 58.3203 221.933 56.9283 221.933C55.4163 221.933 54.6483 222.917 54.6483 224.429V231.533H50.9043V218.717H54.5763V220.397H54.6243C55.3203 219.149 56.8323 218.429 58.3683 218.429C60.1443 218.429 61.3923 219.101 62.1123 220.469C63.3603 219.053 64.5603 218.429 66.3603 218.429C69.3603 218.429 70.8723 220.445 70.8723 223.541V231.533H67.1283V224.381C67.1283 222.749 66.4323 221.933 65.0403 221.933ZM86.5371 226.157H77.2251C77.4411 227.717 78.7851 228.677 80.3931 228.677C81.5211 228.677 82.6731 228.077 83.2491 227.141L85.9611 228.917C84.8811 230.861 83.0571 231.821 80.4411 231.821C78.4491 231.821 76.7931 231.197 75.4251 229.949C74.0811 228.677 73.4091 227.069 73.4091 225.101C73.4091 223.253 74.0811 221.693 75.4011 220.373C76.7451 219.053 78.3531 218.405 80.2011 218.405C82.0971 218.405 83.6331 219.005 84.8091 220.181C85.9851 221.357 86.5851 222.917 86.5851 224.813C86.5851 225.413 86.5611 225.869 86.5371 226.157ZM77.3211 223.685H82.8411C82.7451 222.557 81.8091 221.453 80.1051 221.453C79.3371 221.453 78.6891 221.693 78.1851 222.197C77.6811 222.677 77.3931 223.181 77.3211 223.685ZM101.248 231.533H97.528V224.429C97.528 222.917 96.76 221.933 95.296 221.933C93.784 221.933 92.992 223.013 92.992 224.429V231.533H89.248V218.717H92.968V220.397H92.992C93.304 219.869 93.712 219.461 94.264 219.149C95.392 218.501 96.064 218.477 96.616 218.477C98.152 218.477 99.304 218.957 100.072 219.941C100.864 220.925 101.248 222.125 101.248 223.565V231.533ZM112.356 228.365V231.461C111.804 231.629 111.228 231.701 110.604 231.701C107.268 231.701 105.516 229.877 105.516 226.877V221.957H103.212V218.717H105.564V214.709H109.26V218.717H112.428V221.957H109.26V226.421C109.26 227.885 110.028 228.461 111.492 228.461C111.804 228.461 112.092 228.437 112.356 228.365ZM127.648 220.181C132.136 221.453 134.224 223.013 134.224 226.013C134.224 227.717 133.624 229.133 132.4 230.213C131.176 231.293 129.496 231.821 127.336 231.821C123.808 231.821 121.12 230.117 119.992 227.405L123.352 225.677C124.096 227.309 125.56 228.293 127.456 228.293C129.112 228.293 130.312 227.453 130.312 226.301C130.312 225.749 130.072 225.317 129.568 225.005C129.088 224.669 128.152 224.285 126.76 223.877C124.576 223.229 123.04 222.461 122.176 221.597C121.216 220.661 120.736 219.509 120.736 218.117C120.736 216.461 121.384 215.117 122.656 214.061C123.928 212.981 125.488 212.453 127.288 212.453C130.432 212.453 132.808 213.917 133.888 216.509L130.672 218.261C130.024 216.725 128.848 215.957 127.12 215.957C125.584 215.957 124.624 216.749 124.624 217.877C124.624 219.005 125.512 219.581 127.648 220.181ZM136.8 218.717H140.544V225.869C140.544 227.381 141.24 228.317 142.752 228.317C144.264 228.317 145.056 227.285 145.056 225.869V218.717H148.8V231.533H145.104V229.949H145.08C144.24 231.173 143.04 231.797 141.504 231.797C139.992 231.797 138.816 231.317 138 230.357C137.208 229.373 136.8 228.173 136.8 226.757V218.717ZM158.368 231.821C156.376 231.821 154.72 231.197 153.424 229.925C152.128 228.653 151.48 227.069 151.48 225.149C151.48 223.253 152.152 221.669 153.496 220.373C154.84 219.077 156.472 218.429 158.392 218.429C161.248 218.429 163.6 219.869 164.44 222.389L161.152 223.757C160.6 222.485 159.664 221.861 158.392 221.861C156.664 221.861 155.32 223.109 155.32 225.101C155.32 227.021 156.568 228.365 158.392 228.365C159.736 228.365 160.672 227.741 161.224 226.469L164.536 227.837C163.552 230.453 161.224 231.821 158.368 231.821ZM173.134 231.821C171.142 231.821 169.486 231.197 168.19 229.925C166.894 228.653 166.246 227.069 166.246 225.149C166.246 223.253 166.918 221.669 168.262 220.373C169.606 219.077 171.238 218.429 173.158 218.429C176.014 218.429 178.366 219.869 179.206 222.389L175.918 223.757C175.366 222.485 174.43 221.861 173.158 221.861C171.43 221.861 170.086 223.109 170.086 225.101C170.086 227.021 171.334 228.365 173.158 228.365C174.502 228.365 175.438 227.741 175.99 226.469L179.302 227.837C178.318 230.453 175.99 231.821 173.134 231.821ZM194.115 226.157H184.803C185.019 227.717 186.363 228.677 187.971 228.677C189.099 228.677 190.251 228.077 190.827 227.141L193.539 228.917C192.459 230.861 190.635 231.821 188.019 231.821C186.027 231.821 184.371 231.197 183.003 229.949C181.659 228.677 180.987 227.069 180.987 225.101C180.987 223.253 181.659 221.693 182.979 220.373C184.323 219.053 185.931 218.405 187.779 218.405C189.675 218.405 191.211 219.005 192.387 220.181C193.563 221.357 194.163 222.917 194.163 224.813C194.163 225.413 194.139 225.869 194.115 226.157ZM184.899 223.685H190.419C190.323 222.557 189.387 221.453 187.683 221.453C186.915 221.453 186.267 221.693 185.763 222.197C185.259 222.677 184.971 223.181 184.899 223.685ZM206.474 227.669C206.474 230.141 204.53 231.821 201.362 231.821C198.674 231.821 196.802 230.837 195.77 228.869L198.53 227.237C199.058 228.269 200.018 228.797 201.41 228.797C202.346 228.797 202.97 228.365 202.97 227.861C202.97 227.357 202.562 226.973 200.93 226.613C197.882 225.941 196.37 224.549 196.37 222.461C196.37 221.285 196.85 220.301 197.81 219.557C198.794 218.789 199.946 218.405 201.29 218.405C203.666 218.405 205.394 219.437 206.234 220.997L203.522 222.605C203.042 221.789 202.274 221.381 201.194 221.381C200.426 221.381 199.85 221.813 199.85 222.317C199.85 222.869 200.402 223.253 201.53 223.493C204.77 224.165 206.474 225.437 206.474 227.669ZM218.755 227.669C218.755 230.141 216.811 231.821 213.643 231.821C210.955 231.821 209.083 230.837 208.051 228.869L210.811 227.237C211.339 228.269 212.299 228.797 213.691 228.797C214.627 228.797 215.251 228.365 215.251 227.861C215.251 227.357 214.843 226.973 213.211 226.613C210.163 225.941 208.651 224.549 208.651 222.461C208.651 221.285 209.131 220.301 210.091 219.557C211.075 218.789 212.227 218.405 213.571 218.405C215.947 218.405 217.675 219.437 218.515 220.997L215.803 222.605C215.323 221.789 214.555 221.381 213.475 221.381C212.707 221.381 212.131 221.813 212.131 222.317C212.131 222.869 212.683 223.253 213.811 223.493C217.051 224.165 218.755 225.437 218.755 227.669ZM229.647 212.189V215.261C229.335 215.165 228.951 215.117 228.495 215.117C227.055 215.117 226.215 215.909 226.215 217.373V218.717H229.575V221.909H226.239V231.533H222.495V221.909H220.191V218.717H222.495V217.445C222.495 214.109 224.271 211.925 227.895 211.925C228.519 211.925 229.095 212.021 229.647 212.189ZM231.581 218.717H235.325V225.869C235.325 227.381 236.021 228.317 237.533 228.317C239.045 228.317 239.837 227.285 239.837 225.869V218.717H243.581V231.533H239.885V229.949H239.861C239.021 231.173 237.821 231.797 236.285 231.797C234.773 231.797 233.597 231.317 232.781 230.357C231.989 229.373 231.581 228.173 231.581 226.757V218.717ZM250.797 211.973V231.533H247.029V211.973H250.797Z" fill="white"/>
<g filter="url(#filter0_d_382_1448)">
<g filter="url(#filter1_d_382_1448)">
<ellipse cx="127.772" cy="101.749" rx="53.7724" ry="53.8603" fill="white"/>
</g>
<path d="M148.364 86.2778L120.048 114.64L107.177 101.748" stroke="url(#paint0_linear_382_1448)" stroke-width="12.3891" stroke-linecap="round" stroke-linejoin="round"/>
</g>
<defs>
<filter id="filter0_d_382_1448" x="41.5207" y="25.8027" width="172.504" height="172.679" filterUnits="userSpaceOnUse" color-interpolation-filters="sRGB">
<feFlood flood-opacity="0" result="BackgroundImageFix"/>
<feColorMatrix in="SourceAlpha" type="matrix" values="0 0 0 0 0 0 0 0 0 0 0 0 0 0 0 0 0 0 127 0" result="hardAlpha"/>
<feOffset dy="10.3934"/>
<feGaussianBlur stdDeviation="16.2397"/>
<feComposite in2="hardAlpha" operator="out"/>
<feColorMatrix type="matrix" values="0 0 0 0 0 0 0 0 0 0 0 0 0 0 0 0 0 0 0.1 0"/>
<feBlend mode="normal" in2="BackgroundImageFix" result="effect1_dropShadow_382_1448"/>
<feBlend mode="normal" in="SourceGraphic" in2="effect1_dropShadow_382_1448" result="shape"/>
</filter>
<filter id="filter1_d_382_1448" x="28.1143" y="2.00299" width="199.316" height="199.492" filterUnits="userSpaceOnUse" color-interpolation-filters="sRGB">
<feFlood flood-opacity="0" result="BackgroundImageFix"/>
<feColorMatrix in="SourceAlpha" type="matrix" values="0 0 0 0 0 0 0 0 0 0 0 0 0 0 0 0 0 0 127 0" result="hardAlpha"/>
<feOffset/>
<feGaussianBlur stdDeviation="22.9428"/>
<feComposite in2="hardAlpha" operator="out"/>
<feColorMatrix type="matrix" values="0 0 0 0 0 0 0 0 0 0 0 0 0 0 0 0 0 0 0.1 0"/>
<feBlend mode="normal" in2="BackgroundImageFix" result="effect1_dropShadow_382_1448"/>
<feBlend mode="normal" in="SourceGraphic" in2="effect1_dropShadow_382_1448" result="shape"/>
</filter>
<linearGradient id="paint0_linear_382_1448" x1="107.177" y1="86.2778" x2="133.674" y2="124.756" gradientUnits="userSpaceOnUse">
<stop stop-color="#00E587"/>
<stop offset="1" stop-color="#00B8AD"/>
</linearGradient>
</defs>
</svg>
