<svg width="166" height="46" viewBox="0 0 166 46" fill="none" xmlns="http://www.w3.org/2000/svg">
<path d="M116.496 10.4565C114.024 10.4565 111.607 11.1923 109.552 12.5706C107.496 13.949 105.894 15.9082 104.948 18.2003C104.002 20.4924 103.755 23.0145 104.238 25.4477C104.72 27.8808 105.911 30.1158 107.659 31.8698C109.408 33.6238 111.635 34.8181 114.06 35.3016C116.485 35.7852 118.998 35.5363 121.282 34.5864C123.566 33.6365 125.518 32.0283 126.891 29.9652C128.264 27.9021 128.996 25.4767 128.995 22.9958C128.995 21.3488 128.672 19.718 128.044 18.1964C127.416 16.6749 126.495 15.2924 125.334 14.128C124.173 12.9635 122.796 12.04 121.279 11.41C119.763 10.7801 118.137 10.4561 116.496 10.4565V10.4565ZM116.496 30.1266C115.094 30.1223 113.725 29.7014 112.562 28.9168C111.399 28.1323 110.493 27.0194 109.959 25.7187C109.426 24.4179 109.289 22.9877 109.565 21.6087C109.841 20.2296 110.518 18.9636 111.51 17.9704C112.503 16.9773 113.767 16.3016 115.142 16.0288C116.517 15.7559 117.942 15.8981 119.236 16.4373C120.531 16.9766 121.637 17.8887 122.415 19.0586C123.194 20.2284 123.609 21.6035 123.609 23.0101C123.609 23.9464 123.425 24.8736 123.067 25.7384C122.71 26.6032 122.185 27.3886 121.525 28.0497C120.864 28.7109 120.079 29.2346 119.217 29.591C118.354 29.9474 117.429 30.1294 116.496 30.1266V30.1266Z" fill="white"/>
<path d="M67.0603 10.4565C64.5879 10.4558 62.1708 11.191 60.1148 12.5689C58.0588 13.9469 56.4562 15.9058 55.5097 18.1978C54.5633 20.4898 54.3154 23.0121 54.7976 25.4455C55.2798 27.8789 56.4703 30.1141 58.2185 31.8685C59.9668 33.6229 62.1942 34.8175 64.6191 35.3014C67.0441 35.7852 69.5575 35.5365 71.8416 34.5868C74.1256 33.637 76.0777 32.0288 77.4508 29.9656C78.824 27.9024 79.5565 25.4769 79.5558 22.9958C79.5549 19.6705 78.2381 16.4816 75.8949 14.1303C73.5518 11.7789 70.374 10.4575 67.0603 10.4565V10.4565ZM67.0603 30.1266C65.6584 30.123 64.2891 29.7027 63.1252 28.9186C61.9613 28.1345 61.0551 27.0218 60.5211 25.7211C59.987 24.4204 59.8491 22.9901 60.1247 21.6108C60.4004 20.2315 61.0772 18.9652 62.0697 17.9717C63.0622 16.9782 64.3258 16.3022 65.701 16.029C67.0762 15.7559 68.5011 15.8978 69.7959 16.437C71.0908 16.9761 72.1973 17.8883 72.9757 19.0582C73.7542 20.2281 74.1697 21.6033 74.1697 23.0101C74.1697 23.9461 73.9857 24.873 73.6282 25.7375C73.2707 26.6021 72.7467 27.3874 72.0863 28.0485C71.4259 28.7095 70.642 29.2334 69.7796 29.59C68.9171 29.9466 67.9931 30.1289 67.0603 30.1266V30.1266Z" fill="white"/>
<path d="M102.629 34.916H81.499V30.7991L94.2641 16.2103H83.9492C83.2994 16.2103 82.6762 15.9512 82.2167 15.4901C81.7572 15.029 81.499 14.4036 81.499 13.7515V11.0259H102.629V15.2424L89.2751 29.7458H100.182C100.504 29.7458 100.822 29.8095 101.119 29.9331C101.416 30.0567 101.686 30.2378 101.913 30.4662C102.141 30.6946 102.321 30.9656 102.443 31.2639C102.566 31.5622 102.629 31.8819 102.629 32.2046V34.916Z" fill="white"/>
<path d="M158.082 34.9622H152.409L147.732 20.8894L143.009 34.9622H137.335L129.421 11.0259H133.254C133.955 11.0258 134.639 11.2489 135.206 11.6633C135.773 12.0776 136.194 12.6617 136.41 13.3316L140.392 25.7215L145.25 11.0259H150.164L155.029 25.7677L159.011 13.3387C159.226 12.6682 159.647 12.0832 160.214 11.6682C160.781 11.2533 161.465 11.0296 162.167 11.0294H166L158.082 34.9622Z" fill="white"/>
<path d="M32.1982 11.5381C32.457 11.5335 32.7143 11.5795 32.9551 11.6748C33.196 11.7701 33.4155 11.913 33.6016 12.0938C36.0883 14.4887 37.6842 17.6651 38.123 21.0957C38.206 21.7266 38.2459 22.3626 38.2432 22.999C38.2418 26.2711 37.1843 29.4554 35.2295 32.0742C33.2747 34.693 30.5271 36.606 27.3984 37.5273C24.2698 38.4485 20.928 38.3291 17.873 37.1855C14.818 36.042 12.2143 33.936 10.4512 31.1836L7.66016 33.9834C9.35449 36.3912 11.5837 38.3709 14.1709 39.7666C16.758 41.1622 19.6325 41.9363 22.5684 42.0264C25.5043 42.1164 28.4216 41.5206 31.0889 40.2861C33.756 39.0516 36.1008 37.2115 37.9385 34.9121C38.1009 34.7099 38.3012 34.5415 38.5283 34.417C38.7555 34.2925 39.0053 34.2143 39.2627 34.1865C39.5202 34.1588 39.7809 34.1826 40.0293 34.2559C40.2776 34.3291 40.5094 34.4503 40.7109 34.6133C40.9124 34.7759 41.08 34.9774 41.2041 35.2051C41.3282 35.4329 41.4069 35.6833 41.4346 35.9414C41.4622 36.1993 41.439 36.4602 41.3662 36.709C41.2932 36.958 41.1713 37.1906 41.0088 37.3926C38.8668 40.0808 36.1495 42.2511 33.0576 43.7412C29.9657 45.2313 26.5785 46.003 23.1484 46C19.1732 45.9864 15.2692 44.941 11.8154 42.9658C8.36156 40.9906 5.47532 38.1528 3.4375 34.7275C3.21713 34.3506 3.12784 33.9109 3.18359 33.4775C3.23944 33.0441 3.43739 32.6414 3.74609 32.333L9.57129 26.4902C9.80184 26.259 10.0862 26.0882 10.3984 25.9941C10.7105 25.9001 11.0411 25.8857 11.3604 25.9512C11.6797 26.0167 11.9782 26.1606 12.2285 26.3701C12.4788 26.5797 12.6734 26.8488 12.7949 27.1523C13.7661 29.5788 15.553 31.5876 17.8457 32.8301C20.1386 34.0726 22.793 34.4701 25.3477 33.9541C27.9023 33.438 30.1968 32.0409 31.832 30.0049C33.4672 27.9688 34.341 25.4223 34.3008 22.8076C34.2951 22.4054 34.2659 22.0034 34.2148 21.6045C33.8943 19.065 32.7156 16.7128 30.875 14.9404C30.4975 14.5775 30.2789 14.0782 30.2676 13.5537C30.2564 13.0296 30.4532 12.5223 30.8145 12.1436C30.994 11.9563 31.2089 11.806 31.4463 11.7021C31.6836 11.5983 31.9393 11.5427 32.1982 11.5381ZM21.7236 15.835C23.1357 15.5529 24.5994 15.6973 25.9297 16.25C27.26 16.8028 28.3972 17.7391 29.1973 18.9404C29.9972 20.1417 30.4247 21.5542 30.4248 22.999C30.4229 24.9351 29.6557 26.7917 28.292 28.1611C26.928 29.5306 25.0779 30.3019 23.1484 30.3047C21.7086 30.3054 20.301 29.8773 19.1035 29.0752C17.9061 28.273 16.9724 27.1324 16.4209 25.7979C15.8694 24.4631 15.7244 22.9935 16.0049 21.5762C16.2854 20.159 16.9782 18.8569 17.9961 17.835C19.014 16.813 20.3115 16.1171 21.7236 15.835ZM18.4365 8.60254C20.9771 7.77347 23.6903 7.62795 26.3047 8.17969C26.7454 8.27362 27.1405 8.51664 27.4238 8.86816C27.7072 9.2199 27.8621 9.65902 27.8613 10.1113C27.8636 10.2538 27.8473 10.3965 27.8145 10.5352C27.7205 10.9784 27.477 11.3753 27.125 11.6592C26.773 11.9431 26.3344 12.097 25.8828 12.0938C25.7421 12.094 25.6012 12.0779 25.4639 12.0469C24.7076 11.8847 23.9364 11.8027 23.1631 11.8018C20.3896 11.8188 17.7107 12.8179 15.5996 14.623C14.6281 15.4734 13.674 16.4664 12.7627 17.4307C12.2841 17.9323 11.8091 18.427 11.3447 18.9072L4.38086 25.8818L1.94434 28.3262C1.81724 28.4555 1.6577 28.5483 1.48242 28.5938C1.30719 28.6391 1.12278 28.6354 0.949219 28.584C0.775571 28.5325 0.618648 28.4345 0.496094 28.3008C0.373617 28.167 0.289504 28.0021 0.25293 27.8242C0.164328 27.3618 0.0866266 26.8959 0.0263672 26.4229C-0.0361926 25.935 0.0136272 25.4389 0.172852 24.9736C0.332119 24.5084 0.596182 24.0856 0.944336 23.7393L4.35547 20.3135L8.54004 16.1104C9.00083 15.6515 9.45449 15.1748 9.9082 14.6875C10.8939 13.652 11.9048 12.5915 13.0146 11.6201C14.6008 10.2582 16.4453 9.23155 18.4365 8.60254ZM23.1484 19.6514C22.4885 19.6514 21.8436 19.8479 21.2949 20.2158C20.7463 20.5837 20.318 21.106 20.0654 21.7178C19.8129 22.3295 19.7473 23.0029 19.876 23.6523C20.0047 24.3019 20.3224 24.8989 20.7891 25.3672C21.2556 25.8353 21.85 26.154 22.4971 26.2832C23.1443 26.4124 23.8161 26.3462 24.4258 26.0928C25.0353 25.8393 25.5563 25.4099 25.9229 24.8594C26.2894 24.3088 26.4854 23.6612 26.4854 22.999C26.4843 22.1114 26.1323 21.2604 25.5068 20.6328C24.8813 20.0051 24.0331 19.6523 23.1484 19.6514ZM17.9111 0.611328C22.0914 -0.375855 26.4641 -0.16449 30.5303 1.22168C34.5967 2.60798 38.1932 5.11375 40.9092 8.45215C43.6252 11.7905 45.3517 15.8281 45.8916 20.1035C45.9567 20.6236 45.8133 21.1483 45.4932 21.5625C45.1727 21.9768 44.7011 22.2467 44.1826 22.3125L44.1787 22.3232C43.6601 22.3887 43.1365 22.2444 42.7236 21.9229C42.311 21.6013 42.042 21.1286 41.9766 20.6084C41.5319 17.0661 40.1038 13.7204 37.8545 10.9541C35.6052 8.18792 32.6257 6.1127 29.2568 4.96484C25.8878 3.81701 22.2645 3.64274 18.8018 4.46289C15.3391 5.28305 12.1758 7.0642 9.67383 9.60254C9.30416 9.97315 8.80282 10.1816 8.28027 10.1816C7.75781 10.1815 7.2563 9.97313 6.88672 9.60254C6.51749 9.23159 6.31055 8.72841 6.31055 8.2041C6.31059 7.67978 6.51744 7.17659 6.88672 6.80566C9.91019 3.74497 13.7307 1.59861 17.9111 0.611328Z" fill="white"/>
</svg>
