<svg width="103" height="40" viewBox="0 0 103 40" fill="none" xmlns="http://www.w3.org/2000/svg">
<path d="M20.1518 0C9.03938 0 0 8.97064 0 19.9985C0 27.3387 4.04222 34.0755 10.5459 37.5837C10.5637 37.5925 10.5815 37.6014 10.5964 37.6102C10.712 37.672 10.8277 37.7338 10.9463 37.7927C10.9819 37.8103 11.0205 37.8309 11.056 37.8486C11.1836 37.9133 11.3141 37.9751 11.4416 38.0369C11.4475 38.0399 11.4564 38.0428 11.4623 38.0487C11.6106 38.1193 11.7589 38.187 11.9072 38.2547C11.922 38.2606 11.9368 38.2665 11.9517 38.2753C12.097 38.3401 12.2423 38.4019 12.3876 38.4637C12.3876 38.4637 12.3906 38.4637 12.3936 38.4637C12.8651 38.6579 13.3426 38.8375 13.8319 38.9964L20.6322 8.797H8.35728C11.3319 5.7126 15.5194 3.7878 20.1518 3.7878C24.7842 3.7878 28.9717 5.7126 31.9463 8.797H24.0694L16.8747 39.7351C17.9394 39.9088 19.0307 40 20.1429 40C20.5996 40 21.0533 39.9823 21.5041 39.9529C21.602 39.947 21.6999 39.9382 21.7948 39.9323C21.8897 39.9235 21.9816 39.9176 22.0765 39.9088C22.2011 39.897 22.3226 39.8852 22.4472 39.8705C22.4769 39.8676 22.5036 39.8646 22.5332 39.8617C23.5564 39.741 24.5647 39.5438 25.5552 39.273C29.7161 38.1252 33.4677 35.6147 36.119 32.2037C38.8563 28.6807 40.3035 24.4603 40.3035 20.0015C40.3065 8.97064 31.2642 0 20.1518 0ZM13.734 14.283L9.63845 32.4067C5.9877 29.3606 3.81683 24.84 3.81683 19.9985C3.81683 17.9884 4.1905 16.0606 4.86668 14.28H13.7311L13.734 14.283ZM33.094 29.8874C30.9439 32.654 27.9041 34.6906 24.5321 35.6177C24.1762 35.7148 23.8203 35.8002 23.4585 35.8737L28.4675 14.28H35.4339C36.113 16.0577 36.4838 17.9854 36.4838 19.9985C36.4838 23.6127 35.3123 27.0326 33.094 29.8874Z" fill="#60E66E"></path>
<path d="M60.7427 9.57666C63.1627 9.57666 65.043 10.2624 66.3894 11.6339C67.7328 13.0054 68.4061 14.9184 68.4061 17.3759C68.4061 19.8334 67.9434 22.079 67.0181 24.1157C66.0928 26.1523 64.8146 27.7122 63.1865 28.7982C61.5583 29.8842 59.6692 30.4257 57.5191 30.4257C55.016 30.4257 53.0824 29.7371 51.7182 28.3626C50.354 26.9852 49.6719 25.0751 49.6719 22.6265C49.6719 20.1778 50.1523 17.9292 51.1102 15.8808C52.0681 13.8295 53.373 12.2667 55.0249 11.1924C56.6768 10.1182 58.5808 9.5796 60.7398 9.5796L60.7427 9.57666ZM62.8929 17.4319C62.8929 16.3782 62.6704 15.5541 62.2226 14.9596C61.7748 14.3651 61.1283 14.0649 60.2831 14.0649C59.3607 14.0649 58.5155 14.4534 57.7415 15.2275C56.9704 16.0044 56.3535 17.0699 55.8909 18.4266C55.4312 19.7834 55.1999 21.1755 55.1999 22.597C55.1999 24.8309 56.1311 25.9493 57.9906 25.9493C58.8744 25.9493 59.6959 25.5667 60.4551 24.7985C61.2143 24.0333 61.8104 22.9973 62.2404 21.6964C62.6734 20.3956 62.8899 18.9711 62.8899 17.4289L62.8929 17.4319Z" fill="white"></path>
<path d="M77.236 30.1493H71.7792L75.0889 14.3713H70.6641L71.6279 9.89771H85.9788L84.9883 14.3713H80.5487L77.239 30.1493H77.236Z" fill="white"></path>
<path d="M93.3376 30.1491H87.8807L91.1904 14.371H86.7656L87.7295 9.89746H102.08L101.09 14.371H96.6502L93.3405 30.1491H93.3376Z" fill="white"></path>
</svg>